#N canvas 0 0 2040 1050 12;
#X declare -lib mrpeach;
#X obj 326 72 unpackOSC;
#X floatatom 346 183 5 0 0 0 - - -;
#X obj 342 674 packOSC;
#X obj 326 36 udpreceive 7000;
#X msg 438 237 10;
#X floatatom 344 282 5 0 0 0 - - -;
#X obj 326 0 import mrpeach;
#X obj 344 317 /;
#X floatatom 342 496 5 0 0 0 - - -;
#X obj 328 710 udpsend;
#X msg 328 807 connect localhost 8000;
#X msg 328 931 disconnect;
#X floatatom 342 567 5 0 0 0 - - -;
#X text 80 -1 import library of OSC functions;
#X text 142 39 receive data at port 7000;
#X text 116 141 capture 3 values from /accxyz;
#X text 295 184 roll;
#X text 797 164 pitch;
#X text 1232 164 face up/down;
#X text 5 350 convert range from (roughly) -10 - +10 to 0-1;
#X obj 342 460 limit 0 1;
#X obj 342 531 mavg;
#X obj 344 143 unpack f f f;
#X obj 405 535 unpack f;
#X floatatom 405 571 5 0 0 0 - - -;
#X obj 344 238 +;
#X obj 342 602 spigot;
#X text 171 806 send OSC to port 8000;
#X obj 605 732 bng 75 250 75 0 empty empty empty 17 7 0 10 -262144
-1 -1;
#X obj 604 856 bng 75 250 75 0 empty empty empty 17 7 0 10 -262144
-1 -1;
#X obj 473 599 spigot;
#X obj 507 535 unpack f;
#X floatatom 507 571 5 0 0 0 - - -;
#X obj 590 599 spigot;
#X obj 624 535 unpack f;
#X floatatom 624 571 5 0 0 0 - - -;
#X obj 659 317 unpack f;
#X floatatom 659 353 5 0 0 0 - - -;
#X obj 726 317 unpack f;
#X floatatom 764 396 5 0 0 0 - - -;
#X msg 726 389 1;
#X obj 726 425 -;
#X floatatom 726 461 5 0 0 0 - - -;
#X obj 462 256 -;
#X obj 459 167 unpack f;
#X floatatom 489 238 5 0 0 0 - - -;
#X floatatom 464 282 5 0 0 0 - - -;
#X obj 344 101 routeOSC /accxyz /togglex1 /togglex2 /togglex3 /xinmin
/xinmax /xoutmin /xoutmax;
#X obj 598 317 -;
#X obj 556 167 unpack f;
#X floatatom 630 238 5 0 0 0 - - -;
#X floatatom 598 353 5 0 0 0 - - -;
#X msg 593 238 20;
#X floatatom 556 275 5 0 0 0 - - -;
#X obj 556 239 +;
#X obj 438 201 t b b;
#X obj 556 203 t b b b;
#X obj 726 353 t b b;
#X floatatom 342 349 5 0 0 0 - - -;
#X floatatom 841 163 5 0 0 0 - - -;
#X obj 837 674 packOSC;
#X msg 933 237 10;
#X floatatom 839 282 5 0 0 0 - - -;
#X obj 839 317 /;
#X floatatom 837 496 5 0 0 0 - - -;
#X floatatom 837 567 5 0 0 0 - - -;
#X obj 837 460 limit 0 1;
#X obj 837 531 mavg;
#X obj 900 535 unpack f;
#X floatatom 900 571 5 0 0 0 - - -;
#X obj 839 238 +;
#X obj 837 602 spigot;
#X obj 968 599 spigot;
#X obj 1002 535 unpack f;
#X floatatom 1002 571 5 0 0 0 - - -;
#X obj 1085 599 spigot;
#X obj 1119 535 unpack f;
#X floatatom 1119 571 5 0 0 0 - - -;
#X obj 1154 317 unpack f;
#X floatatom 1154 353 5 0 0 0 - - -;
#X obj 1221 317 unpack f;
#X floatatom 1259 396 5 0 0 0 - - -;
#X msg 1221 389 1;
#X obj 1221 425 -;
#X floatatom 1221 461 5 0 0 0 - - -;
#X obj 957 256 -;
#X obj 954 167 unpack f;
#X floatatom 984 238 5 0 0 0 - - -;
#X floatatom 959 282 5 0 0 0 - - -;
#X obj 1093 317 -;
#X obj 1051 167 unpack f;
#X floatatom 1125 238 5 0 0 0 - - -;
#X floatatom 1093 353 5 0 0 0 - - -;
#X msg 1088 238 20;
#X floatatom 1041 282 5 0 0 0 - - -;
#X obj 1039 282 +;
#X obj 933 201 t b b;
#X obj 1051 203 t b b b;
#X obj 1221 353 t b b;
#X floatatom 837 349 5 0 0 0 - - -;
#X floatatom 1326 163 5 0 0 0 - - -;
#X obj 1322 674 packOSC;
#X msg 1418 237 10;
#X floatatom 1324 282 5 0 0 0 - - -;
#X obj 1324 317 /;
#X floatatom 1322 496 5 0 0 0 - - -;
#X floatatom 1322 567 5 0 0 0 - - -;
#X obj 1322 460 limit 0 1;
#X obj 1322 531 mavg;
#X obj 1385 535 unpack f;
#X floatatom 1385 571 5 0 0 0 - - -;
#X obj 1324 238 +;
#X obj 1322 602 spigot;
#X obj 1453 599 spigot;
#X obj 1487 535 unpack f;
#X floatatom 1487 571 5 0 0 0 - - -;
#X obj 1570 599 spigot;
#X obj 1604 535 unpack f;
#X floatatom 1604 571 5 0 0 0 - - -;
#X obj 1639 317 unpack f;
#X floatatom 1639 353 5 0 0 0 - - -;
#X obj 1706 317 unpack f;
#X floatatom 1744 396 5 0 0 0 - - -;
#X msg 1706 389 1;
#X obj 1706 425 -;
#X floatatom 1706 461 5 0 0 0 - - -;
#X obj 1442 256 -;
#X obj 1439 167 unpack f;
#X floatatom 1469 238 5 0 0 0 - - -;
#X floatatom 1444 282 5 0 0 0 - - -;
#X obj 1578 317 -;
#X obj 1536 167 unpack f;
#X floatatom 1610 238 5 0 0 0 - - -;
#X floatatom 1578 353 5 0 0 0 - - -;
#X msg 1573 238 20;
#X floatatom 1526 282 5 0 0 0 - - -;
#X obj 1524 282 +;
#X obj 1418 201 t b b;
#X obj 1536 203 t b b b;
#X obj 1706 353 t b b;
#X floatatom 1322 349 5 0 0 0 - - -;
#X obj 904 101 routeOSC /toggley1 /toggley2 /toggley3 /yinmin /yinmax
/youtmin /youtmax;
#X obj 1373 101 routeOSC /togglez1 /togglez2 /togglez3 /zinmin /zinmax
/zoutmin /zoutmax;
#X msg 872 511 10;
#X msg 1357 511 10;
#X msg 377 511 10;
#X text 684 789 CONNECT;
#X text 683 914 DISCONNECT;
#X text 172 495 smooth over 10 values;
#X text 109 568 toggle output of each variable;
#X text 1020 895 created by gt3k for more information see https://drive.google.com/folderview?id=0B5vlqn3EBiU4b0hIMl8zRWhRZWc&usp=sharing
http://forum.cockos.com/showthread.php?p=1390617;
#X msg 342 638 sendtyped /accx1 f \$1;
#X msg 473 635 sendtyped /accx2 f \$1;
#X msg 590 635 sendtyped /accx3 f \$1;
#X msg 837 638 sendtyped /accy1 f \$1;
#X msg 968 635 sendtyped /accy2 f \$1;
#X msg 1085 635 sendtyped /accy3 f \$1;
#X msg 1322 638 sendtyped /accz1 f \$1;
#X msg 1453 635 sendtyped /accz2 f \$1;
#X msg 1570 635 sendtyped /accz3 f \$1;
#X connect 0 0 47 0;
#X connect 0 0 141 0;
#X connect 0 0 142 0;
#X connect 1 0 25 0;
#X connect 1 0 55 0;
#X connect 1 0 56 0;
#X connect 2 0 9 0;
#X connect 3 0 0 0;
#X connect 4 0 43 0;
#X connect 5 0 7 0;
#X connect 7 0 58 0;
#X connect 8 0 145 0;
#X connect 8 0 21 0;
#X connect 10 0 9 0;
#X connect 11 0 9 0;
#X connect 12 0 26 0;
#X connect 12 0 30 0;
#X connect 12 0 33 0;
#X connect 20 0 8 0;
#X connect 21 0 12 0;
#X connect 22 0 1 0;
#X connect 22 1 59 0;
#X connect 22 2 100 0;
#X connect 23 0 24 0;
#X connect 24 0 26 1;
#X connect 25 0 5 0;
#X connect 26 0 151 0;
#X connect 28 0 10 0;
#X connect 29 0 11 0;
#X connect 30 0 152 0;
#X connect 31 0 32 0;
#X connect 32 0 30 1;
#X connect 33 0 153 0;
#X connect 34 0 35 0;
#X connect 35 0 33 1;
#X connect 36 0 37 0;
#X connect 37 0 20 1;
#X connect 38 0 39 0;
#X connect 38 0 57 0;
#X connect 39 0 41 1;
#X connect 40 0 41 0;
#X connect 41 0 42 0;
#X connect 42 0 20 2;
#X connect 43 0 46 0;
#X connect 44 0 45 0;
#X connect 44 0 55 0;
#X connect 45 0 43 1;
#X connect 45 0 54 0;
#X connect 46 0 25 1;
#X connect 47 0 22 0;
#X connect 47 1 23 0;
#X connect 47 2 31 0;
#X connect 47 3 34 0;
#X connect 47 4 44 0;
#X connect 47 5 49 0;
#X connect 47 6 36 0;
#X connect 47 7 38 0;
#X connect 48 0 51 0;
#X connect 49 0 50 0;
#X connect 49 0 56 0;
#X connect 50 0 54 1;
#X connect 51 0 7 1;
#X connect 52 0 48 0;
#X connect 53 0 48 1;
#X connect 54 0 53 0;
#X connect 55 0 4 0;
#X connect 55 1 45 0;
#X connect 56 0 52 0;
#X connect 56 1 53 0;
#X connect 56 2 50 0;
#X connect 57 0 40 0;
#X connect 57 1 39 0;
#X connect 58 0 20 0;
#X connect 59 0 70 0;
#X connect 59 0 96 0;
#X connect 59 0 97 0;
#X connect 60 0 9 0;
#X connect 61 0 85 0;
#X connect 62 0 63 0;
#X connect 63 0 99 0;
#X connect 64 0 143 0;
#X connect 64 0 67 0;
#X connect 65 0 71 0;
#X connect 65 0 72 0;
#X connect 65 0 75 0;
#X connect 66 0 64 0;
#X connect 67 0 65 0;
#X connect 68 0 69 0;
#X connect 69 0 71 1;
#X connect 70 0 62 0;
#X connect 71 0 154 0;
#X connect 72 0 155 0;
#X connect 73 0 74 0;
#X connect 74 0 72 1;
#X connect 75 0 156 0;
#X connect 76 0 77 0;
#X connect 77 0 75 1;
#X connect 78 0 79 0;
#X connect 79 0 66 1;
#X connect 80 0 81 0;
#X connect 80 0 98 0;
#X connect 81 0 83 1;
#X connect 82 0 83 0;
#X connect 83 0 84 0;
#X connect 84 0 66 2;
#X connect 85 0 88 0;
#X connect 86 0 87 0;
#X connect 86 0 96 0;
#X connect 87 0 85 1;
#X connect 87 0 95 0;
#X connect 88 0 70 1;
#X connect 89 0 92 0;
#X connect 90 0 91 0;
#X connect 90 0 97 0;
#X connect 91 0 95 1;
#X connect 92 0 63 1;
#X connect 93 0 89 0;
#X connect 94 0 89 1;
#X connect 95 0 94 0;
#X connect 96 0 61 0;
#X connect 96 1 87 0;
#X connect 97 0 93 0;
#X connect 97 1 94 0;
#X connect 97 2 91 0;
#X connect 98 0 82 0;
#X connect 98 1 81 0;
#X connect 99 0 66 0;
#X connect 100 0 111 0;
#X connect 100 0 137 0;
#X connect 100 0 138 0;
#X connect 101 0 9 0;
#X connect 102 0 126 0;
#X connect 103 0 104 0;
#X connect 104 0 140 0;
#X connect 105 0 144 0;
#X connect 105 0 108 0;
#X connect 106 0 112 0;
#X connect 106 0 113 0;
#X connect 106 0 116 0;
#X connect 107 0 105 0;
#X connect 108 0 106 0;
#X connect 109 0 110 0;
#X connect 110 0 112 1;
#X connect 111 0 103 0;
#X connect 112 0 157 0;
#X connect 113 0 158 0;
#X connect 114 0 115 0;
#X connect 115 0 113 1;
#X connect 116 0 159 0;
#X connect 117 0 118 0;
#X connect 118 0 116 1;
#X connect 119 0 120 0;
#X connect 120 0 107 1;
#X connect 121 0 122 0;
#X connect 121 0 139 0;
#X connect 122 0 124 1;
#X connect 123 0 124 0;
#X connect 124 0 125 0;
#X connect 125 0 107 2;
#X connect 126 0 129 0;
#X connect 127 0 128 0;
#X connect 127 0 137 0;
#X connect 128 0 126 1;
#X connect 128 0 136 0;
#X connect 129 0 111 1;
#X connect 130 0 133 0;
#X connect 131 0 132 0;
#X connect 131 0 138 0;
#X connect 132 0 136 1;
#X connect 133 0 104 1;
#X connect 134 0 130 0;
#X connect 135 0 130 1;
#X connect 136 0 135 0;
#X connect 137 0 102 0;
#X connect 137 1 128 0;
#X connect 138 0 134 0;
#X connect 138 1 135 0;
#X connect 138 2 132 0;
#X connect 139 0 123 0;
#X connect 139 1 122 0;
#X connect 140 0 107 0;
#X connect 141 0 68 0;
#X connect 141 1 73 0;
#X connect 141 2 76 0;
#X connect 141 3 86 0;
#X connect 141 4 90 0;
#X connect 141 5 78 0;
#X connect 141 6 80 0;
#X connect 142 0 109 0;
#X connect 142 1 114 0;
#X connect 142 2 117 0;
#X connect 142 3 127 0;
#X connect 142 4 131 0;
#X connect 142 5 119 0;
#X connect 142 6 121 0;
#X connect 143 0 67 1;
#X connect 144 0 108 1;
#X connect 145 0 21 1;
#X connect 151 0 2 0;
#X connect 152 0 2 0;
#X connect 153 0 2 0;
#X connect 154 0 60 0;
#X connect 155 0 60 0;
#X connect 156 0 60 0;
#X connect 157 0 101 0;
#X connect 158 0 101 0;
#X connect 159 0 101 0;
